<?xml version="1.0" encoding="utf-8"?>
<!-- Generator: Adobe Illustrator 26.1.0, SVG Export Plug-In . SVG Version: 6.00 Build 0)  -->
<svg version="1.1" id="Layer_1" xmlns="http://www.w3.org/2000/svg" xmlns:xlink="http://www.w3.org/1999/xlink" x="0px" y="0px"
	 viewBox="0 0 200 200" style="enable-background:new 0 0 200 200;" xml:space="preserve">
<style type="text/css">
	.st0{fill:#FA594F;}
</style>
<circle class="st0" cx="99.74" cy="99.68" r="92.98"/>
<path d="M99.74,194.2c-52.12,0-94.51-42.4-94.51-94.51c0-52.12,42.4-94.51,94.51-94.51c52.12,0,94.51,42.4,94.51,94.51
	C194.25,151.8,151.86,194.2,99.74,194.2z M99.74,10.98c-48.91,0-88.71,39.79-88.71,88.71c0,48.91,39.79,88.71,88.71,88.71
	c48.91,0,88.71-39.79,88.71-88.71C188.45,50.77,148.65,10.98,99.74,10.98z"/>
<g>
	<g>
		<path d="M132.99,129.22c-0.45,0.16-0.94,0.27-1.4,0.14c-0.48-0.13-0.85-0.51-1.18-0.88c-2.94-3.23-5.16-7.12-6.45-11.29
			c-0.51,4.82,1.48,9.84,5.16,13c-2.02,1.04-3.69,2.76-4.66,4.82c-5.66-6.98-5.83-16.74-8.28-25.38c1.62,0.7,3.25,1.4,4.87,2.1
			c-1,0.55-1.71,1.58-1.89,2.7c3.25-0.94,6.29-2.59,8.85-4.81c-1.21-1.3-3.39,1.08-5.02,0.39c-1.31-0.55-1.13-2.4-1.03-3.82
			c0.22-3.36-1.53-6.78-4.39-8.57c6.54,1.69,10.65,7.23,11.67,13.71c0.46,2.91,0.61,5.91,1.63,8.68c1.02,2.77,3.14,5.36,6.03,5.95
			C136.03,127.47,134.62,128.64,132.99,129.22 M113.19,103.74c-1.61-2.5-3.85-4.22-6.59-5.33c-0.79-0.32-1.59-0.65-2.39-0.97
			c-0.02-0.13-0.03-0.27-0.05-0.4c1.23-0.28,2.45-0.71,3.7-0.8c3.86-0.29,7.18,0.99,9.69,3.97c0.65,0.78,1.14,1.83,1.32,2.83
			c0.33,1.8,0.37,3.65,0.55,5.73C117.05,107.24,114.69,106.05,113.19,103.74 M102.59,106.59c0.46,4.06-0.65,7.57-3.79,10.33
			c-1.26,1.11-2.75,1.55-4.37,1.65c-1.36,0.08-2.72,0.14-4.21,0.22c1.33-2.25,2.56-4.53,4.77-5.99c2.63-1.73,4.44-4.07,5.6-6.96
			c0.29-0.73,0.6-1.45,0.9-2.17c0.1-0.01,0.21-0.02,0.31-0.03C102.07,104.62,102.48,105.59,102.59,106.59 M93.31,126.97
			c-3.57,1.65-7.64,1.69-11.47,2.53c-3.84,0.84-7.88,2.94-9,6.7c-1.25-0.77-2.59-1.64-3.04-3.03c-0.46-1.4,0.15-2.98,1.16-4.05
			s2.35-1.76,3.67-2.42c2.4-1.2,4.79-2.4,7.19-3.6c-4.85,0.49-10.34,1.41-13.02,5.49c-1.17-2.04-2.94-3.73-5.03-4.8
			c-0.02-0.01-0.04-0.02-0.06-0.03c7.6-4.79,16.71-6.43,25.56-7.97c-0.71,1.61-1.42,3.23-2.13,4.84c-0.48-1.07-1.52-1.86-2.68-2.04
			c0.95,3.29,2.65,6.35,4.94,8.9c1.05-1.2-0.98-2.94-0.7-4.52c0.16-0.91,1.08-1.51,2-1.67c0.91-0.16,1.84,0.01,2.77,0.04
			c3.05,0.08,5.42-1.49,7.41-3.62C100.28,121.68,96.85,125.34,93.31,126.97 M106.62,134.07c0.63-0.73,1.45-1.68,2.4-2.77
			c0.13,1.34,0.25,2.56,0.38,3.96C108.37,134.82,107.51,134.45,106.62,134.07 M97.88,94.98c-1.47-3.1-1.5-6.09-0.43-9.01
			c1.82-4.93,5.06-6.62,11.79-6.38c-1.62,2.51-3.01,4.91-5.53,6.52c-2.23,1.42-3.75,3.59-4.73,6.08
			C98.66,93.04,98.32,93.88,97.88,94.98 M98.12,81.48c1.32-5.97,6.83-10.45,12.81-11.74c3.02-0.65,6.17-0.61,9.13-1.5
			c2.96-0.89,5.86-3.05,6.28-6.11c1.72,0.68,4.23,3.12,3.47,5.16c-0.36,0.97-1.18,1.69-1.99,2.33c-3.04,2.39-6.53,4.21-10.23,5.35
			c4.87,0.52,9.94-1.48,13.15-5.18c1.11,2.03,2.84,3.71,4.9,4.76c-7.44,4.96-16.57,6.48-25.39,7.9c0.69-1.56,1.39-3.13,2.08-4.7
			c0.49,1.06,1.53,1.84,2.68,2.03c-0.92-3.31-2.63-6.39-4.95-8.92c-1.01,1.32,1.09,3.13,0.66,4.74c-0.22,0.83-1.1,1.34-1.94,1.46
			c-0.85,0.13-1.71-0.03-2.57-0.07c-3.26-0.14-6.52,1.7-8.1,4.55C98.11,81.53,98.11,81.51,98.12,81.48 M63.68,108.85
			c0.35-1.01,0.67-1.92,1.01-2.89c0.87,0.74,1.83,1.56,2.93,2.5C66.27,108.6,65.03,108.72,63.68,108.85 M92.45,102
			c-4.02,0.55-7.49-0.52-10.29-3.56c-1.28-1.39-1.76-3.06-1.89-4.87c-0.09-1.24-0.1-2.49-0.16-3.92c2.3,1.45,4.66,2.69,6.17,5.03
			c1.65,2.54,3.97,4.23,6.75,5.34c0.75,0.3,1.5,0.62,2.26,0.93c0.01,0.11,0.02,0.21,0.02,0.32C94.36,101.52,93.42,101.86,92.45,102
			 M70.2,87.51c-0.6-2.95-0.59-6.02-1.5-8.9c-0.9-2.87-3.05-5.66-6.03-6.06c0.74-1.51,2.03-2.75,3.58-3.41
			c0.45-0.19,0.95-0.34,1.43-0.23c0.49,0.12,0.87,0.48,1.21,0.84c3.05,3.18,5.34,7.09,6.62,11.31c0.44-4.77-1.52-9.71-5.12-12.87
			c1.96-1.08,3.57-2.78,4.56-4.79c3,3,4.29,7.94,5.39,11.95c0.64,2.33,1.15,4.7,1.61,7.08c0.15,0.77,0.57,6.02,1.11,6.26
			c-1.61-0.7-3.21-1.4-4.82-2.1c1.09-0.47,1.92-1.5,2.14-2.66c-3.3,0.87-6.39,2.58-8.88,4.92c1.22,0.97,2.89-0.95,4.43-0.68
			c0.92,0.16,1.52,1.09,1.67,2.01c0.16,0.92-0.02,1.85-0.04,2.78c-0.08,3.13,1.68,6.23,4.4,7.77C75.86,99.42,71.45,93.63,70.2,87.51
			 M92.91,64.18c-0.72,0.84-1.53,1.8-2.49,2.91c-0.13-1.39-0.25-2.64-0.38-4.03C91.11,63.47,92.01,63.82,92.91,64.18 M135.72,89.51
			c-0.28,1.06-0.52,1.99-0.8,3.04c-1.01-0.88-1.96-1.69-3.08-2.67C133.21,89.74,134.39,89.63,135.72,89.51 M136.73,123.08
			c-3.03-2.11-4.32-5.92-5.03-9.54c-0.71-3.62-1.07-7.42-2.93-10.61c-2.32-3.97-6.72-6.38-11.22-7.34
			c-4.5-0.96-9.16-0.67-13.75-0.36c4.13-4.92,10.91-7.48,17.26-6.53c6.36,0.96,12.08,5.4,14.58,11.32c0.32,0.76,0.99,1.72,1.73,1.35
			c0.56-0.28,0.53-1.08,0.43-1.71c-0.94-6.04,0.71-12.44,4.44-17.28c-2.15-0.2-3.37,2.3-4.9,3.81c-2.09,2.07-5.34,2.48-8.26,2.11
			c-2.92-0.37-5.73-1.38-8.66-1.69c-8.13-0.88-16.09,3.84-21.04,10.35c-0.84-4.3,2.68-8.41,6.72-10.08
			c4.05-1.67,8.56-1.62,12.91-2.16c4.77-0.6,9.44-1.94,13.79-3.97c1.98-0.92,4.14-2.31,5.24-4.26c1.59-2.84,0.17-3.41-1.78-5.14
			c-3.5-3.11-4.44-8.68-8.9-10.79c-0.63-0.3-1.37-0.5-2.01-0.23c-0.58,0.24-0.95,0.8-1.32,1.3c-1.36,1.84-3.19,3.33-5.28,4.27
			c-4.54,2.05-9.98,1.47-14.42,3.71c-4.27,2.16-6.97,6.66-8.08,11.32c-1.11,4.66-0.86,9.52-0.59,14.29
			c-5.1-4.47-7.55-11.77-6.16-18.41c1.39-6.64,6.55-12.36,13.01-14.42c-0.99-1.34-2.98-1.18-4.64-1.07
			c-5.32,0.34-10.74-1.38-14.89-4.73c-0.37,2.15,2.2,3.45,3.75,4.98c2.13,2.11,2.53,5.44,2.13,8.42c-0.4,2.98-1.45,5.84-1.74,8.83
			c-0.79,8.04,4.09,15.74,10.41,20.77c-3.74,0.65-7.45-1.91-9.35-5.2c-1.89-3.29-2.36-7.19-2.76-10.96
			c-0.55-5.09-1.07-10.25-2.91-15.02c-1.12-2.9-2.8-5.7-5.37-7.47c-0.98-0.68-2.29-1.18-3.32-0.6c-0.61,0.34-0.96,0.99-1.36,1.56
			c-2.77,3.92-8.48,4.97-11.09,9.01c-0.45,0.7-0.8,1.56-0.56,2.36c0.27,0.9,1.18,1.42,1.94,1.98c3.02,2.23,4.29,6.1,5.03,9.77
			c0.74,3.68,1.17,7.54,3.14,10.74c2.38,3.86,6.73,6.16,11.17,7.08c4.44,0.92,9.03,0.61,13.55,0.31c-4.09,4.89-10.8,7.45-17.11,6.53
			c-6.31-0.92-12.01-5.3-14.53-11.15c-0.41-0.96-1.55-2.14-2.23-1.34c-0.28,0.34-0.21,0.84-0.14,1.28
			c1.06,6.13-0.63,12.68-4.51,17.54c2.23,0.17,3.53-2.36,5.16-3.89c2.33-2.19,5.88-2.45,9.04-1.96c3.16,0.49,6.22,1.61,9.41,1.75
			c7.75,0.34,14.52-5.05,19.89-10.65c-0.06,5.43-5.05,9.66-10.25,11.26c-5.19,1.6-10.76,1.34-16.12,2.24
			c-5.36,0.9-11,3.43-13.15,8.42c-0.18,0.43-0.34,0.88-0.3,1.34c0.1,1.14,1.27,1.81,2.19,2.5c3.83,2.87,4.81,8.81,9.13,10.86
			c0.52,0.25,1.11,0.43,1.67,0.29c0.89-0.22,1.39-1.13,1.92-1.88c2.15-3.07,6.02-4.39,9.69-5.13c3.67-0.74,7.54-1.13,10.75-3.07
			c3.91-2.36,6.27-6.72,7.21-11.19c0.95-4.47,0.66-9.09,0.37-13.64c5.16,4.4,7.66,11.71,6.27,18.36
			c-1.39,6.64-6.62,12.33-13.12,14.29c0.48,1.32,2.31,1.3,3.71,1.17c5.66-0.53,11.51,1.18,15.99,4.69c0.09-2.26-2.46-3.54-3.99-5.21
			c-2.11-2.29-2.38-5.75-1.91-8.83c0.47-3.08,1.56-6.06,1.76-9.17c0.48-7.7-4.58-14.7-10.4-19.77c4.81-0.72,9.09,3.6,10.61,8.22
			c1.52,4.62,1.17,9.63,1.9,14.44c0.74,4.86,2.6,9.54,5.4,13.58c1.32,1.91,3.63,3.86,5.71,2.82c0.94-0.47,1.5-1.44,2.17-2.25
			c2.97-3.58,8.64-4.59,10.61-8.8c0.25-0.53,0.43-1.14,0.29-1.71C138.49,124.15,137.52,123.63,136.73,123.08"/>
		<path d="M102.06,127.34c-2.79,5.49-7.5,7.99-13.18,9.69c1.47,1.16,2.76,2.22,4.1,3.22c2.72,2.03,5.79,2.46,9.08,1.94
			c1.23-0.2,2.49-0.21,3.74-0.29c0.27-0.02,0.55,0.06,1.15,0.14c-2.46,1.91-4.99,2.72-7.74,2.8c-3.24,0.1-6.01-1.14-8.34-3.33
			c-1.23-1.16-2.31-2.48-3.5-3.69c-0.23-0.23-0.69-0.46-0.96-0.39c-1.94,0.5-3.92,0.93-5.75,1.7c-1.1,0.46-1.96,1.49-2.93,2.26
			c-0.22,0.17-0.61,0.46-0.68,0.4c-0.23-0.19-0.54-0.57-0.48-0.78c0.21-0.79,0.44-1.61,0.87-2.29c1.39-2.19,3.61-3.39,5.96-4.13
			c2.43-0.77,4.97-1.29,7.49-1.64c4.05-0.56,7.35-2.46,10.27-5.18c0.14-0.13,0.27-0.26,0.4-0.39
			C101.56,127.35,101.61,127.36,102.06,127.34"/>
		<path d="M71.48,101.01c-2.98-0.6-4.73-2.81-6.2-5.06c-1.47-2.24-2.42-4.82-3.71-7.47c-1.27,1.81-2.68,3.66-3.9,5.62
			c-1.26,2.02-1.3,4.32-1.05,6.62c0.15,1.43,0.29,2.86,0.41,4.3c0.03,0.34-0.05,0.7-0.24,1.06c-2.08-2.63-2.99-5.59-2.66-8.91
			c0.26-2.54,1.34-4.75,3.04-6.61c1.2-1.3,2.59-2.42,3.82-3.7c0.3-0.31,0.48-0.96,0.39-1.39c-0.38-1.69-0.72-3.43-1.42-5
			c-0.53-1.2-1.57-2.18-2.38-3.26c-0.18-0.25-0.32-0.53-0.48-0.79c0.32-0.15,0.69-0.49,0.95-0.43c0.72,0.18,1.45,0.44,2.07,0.83
			c2.15,1.37,3.24,3.55,4.17,5.81c1.1,2.69,1.4,5.55,1.78,8.4c0.49,3.61,2.29,6.6,4.76,9.22C71.07,100.5,71.27,100.76,71.48,101.01"
			/>
		<path d="M142.32,121.82c-0.15,0.71-0.78,0.68-1.45,0.46c-1.87-0.59-3.19-1.88-4.17-3.5c-1.86-3.06-2.87-6.39-3.15-9.96
			c-0.32-4.16-2.09-7.68-4.92-10.69c-0.1-0.11-0.21-0.22-0.3-0.33c-0.14-0.17-0.27-0.35-0.4-0.52c0.06-0.1,0.12-0.2,0.18-0.29
			c0.93,0.56,1.96,0.99,2.76,1.7c3.22,2.82,5.33,6.35,6.4,10.5c0.04,0.18,0.1,0.35,0.16,0.54c0.16-0.01,0.32,0.02,0.36-0.04
			c1.38-1.89,2.87-3.73,4.1-5.71c1.35-2.18,1.12-4.65,0.83-7.09c-0.15-1.28-0.2-2.57-0.28-3.86c-0.01-0.24,0.08-0.48,0.16-0.87
			c1.56,1.38,2,3.16,2.43,4.88c1.01,4.01,0.01,7.62-2.69,10.69c-1.23,1.41-2.74,2.58-4.09,3.89c-0.18,0.17-0.34,0.53-0.28,0.74
			c0.56,2.07,1,4.2,1.82,6.17C140.29,119.72,141.4,120.66,142.32,121.82"/>
		<path d="M97.54,70.64c2.74-5.08,7.3-7.74,13.08-9.29c-1.59-1.24-2.99-2.4-4.47-3.46c-2.81-2.02-5.97-2.17-9.26-1.67
			c-1.32,0.2-2.68,0.21-4.21,0.33c0.87-1.67,2.38-1.88,3.62-2.31c4.7-1.64,8.89-0.55,12.48,2.81c1.18,1.11,2.18,2.4,3.33,3.54
			c0.26,0.26,0.83,0.41,1.18,0.32c1.83-0.46,3.69-0.86,5.41-1.58c1.06-0.45,1.89-1.44,2.85-2.16c0.29-0.22,0.65-0.36,0.97-0.54
			c0.11,0.4,0.38,0.84,0.3,1.2c-0.46,2.07-1.91,3.41-3.62,4.46c-2.95,1.82-6.21,2.77-9.64,3.04c-4.43,0.34-8.11,2.18-11.23,5.26
			c-0.16,0.16-0.35,0.27-0.53,0.4C97.73,70.86,97.64,70.75,97.54,70.64"/>
	</g>
</g>
<path d="M48.25,85.6c-0.16,0.82-0.24,1.49-0.42,2.13c-1.08,3.83-2.18,7.65-3.27,11.48c-0.66,2.31-1.34,4.62-1.99,6.94
	c-0.43,1.55-0.83,3.1-1.23,4.66c-0.34,1.33-0.75,1.69-2.12,1.71c-0.98,0.01-1.95-0.01-2.93-0.01c-0.63,0-1.06-0.27-1.22-0.89
	c-0.24-0.9-0.48-1.8-0.67-2.71c-0.5-2.4-0.98-4.8-1.47-7.2c-0.4-1.99-0.8-3.98-1.21-5.97c-0.09-0.44-0.21-0.87-0.33-1.37
	c-0.68,0.23-0.73,0.74-0.82,1.16c-0.51,2.44-0.95,4.9-1.47,7.34c-0.58,2.77-1.18,5.54-1.83,8.29c-0.29,1.21-0.52,1.33-1.78,1.36
	c-0.72,0.02-1.44,0.02-2.16,0c-1.48-0.03-1.87-0.32-2.26-1.72c-0.49-1.8-0.93-3.61-1.45-5.4c-0.64-2.23-1.36-4.44-2-6.68
	c-0.94-3.3-1.84-6.6-2.76-9.9c-0.18-0.65-0.43-1.29-0.6-1.94c-0.32-1.22,0.02-1.71,1.24-1.75c1.06-0.04,2.12-0.03,3.18,0
	c1.26,0.04,1.58,0.35,1.86,1.63c0.61,2.73,1.18,5.46,1.82,8.18c0.64,2.71,1.33,5.4,2.06,8.36c0.31-1.37,0.59-2.47,0.81-3.59
	c0.74-3.78,1.46-7.56,2.18-11.35c0.11-0.58,0.15-1.18,0.26-1.76c0.21-1.09,0.6-1.45,1.72-1.48c1.14-0.04,2.29-0.03,3.44,0
	c1.11,0.03,1.49,0.36,1.72,1.47c0.83,3.98,1.65,7.96,2.46,11.94c0.23,1.12,0.39,2.25,0.6,3.37c0.04,0.22,0.21,0.41,0.42,0.79
	c0.23-0.38,0.43-0.58,0.49-0.83c0.65-2.67,1.28-5.34,1.9-8.02c0.49-2.15,0.94-4.3,1.43-6.45c0.5-2.17,0.68-2.3,2.92-2.29
	c0.81,0,1.61-0.01,2.42,0.06C47.5,85.2,47.8,85.41,48.25,85.6z"/>
<path d="M176.54,99.68c0-19.74-7.49-37.77-19.78-51.39l12.14-12.14l-6.2-6.2l-12.17,12.17c-13.55-11.97-31.33-19.24-50.79-19.24
	c-19.6,0-37.5,7.38-51.08,19.51L36.82,30.56l-6.2,6.2l11.84,11.84c-7,7.84-12.42,17.12-15.75,27.33h9.5
	c9.65-25.71,34.48-44.06,63.53-44.06c37.4,0,67.83,30.43,67.83,67.83s-30.43,67.83-67.83,67.83c-29.86,0-55.27-19.39-64.31-46.25
	h-9.4c3.21,10.94,8.79,20.88,16.15,29.21l-11.68,11.68l6.2,6.2l11.65-11.65c13.62,12.29,31.64,19.78,51.39,19.78
	c19.6,0,37.51-7.39,51.09-19.51l11.87,11.87l6.2-6.2l-11.87-11.87C169.16,137.19,176.54,119.28,176.54,99.68z"/>
</svg>
